<svg width="164" height="65" viewBox="0 0 164 65" fill="none" xmlns="http://www.w3.org/2000/svg">
<path fill-rule="evenodd" clip-rule="evenodd" d="M5.96872 31.2361C8.70907 27.7339 13.0973 25.4649 18.0432 25.4649C23.0182 25.4649 27.4287 27.7606 30.1658 31.298C30.0493 31.4118 29.9432 31.5298 29.8471 31.6476C29.3458 32.2645 28.9686 33.059 28.6664 33.8659C28.0578 35.4887 27.5936 37.6085 27.1638 39.5935L27.1256 39.7719C26.6968 41.7533 26.2982 43.5959 25.8162 44.9638C25.5997 45.5783 25.3944 46.0128 25.2123 46.291C25.0223 46.0105 24.8068 45.5708 24.5786 44.9475C24.0632 43.5403 23.6296 41.6263 23.1701 39.5827L23.1552 39.5157V39.5157C22.7135 37.5527 22.2451 35.4699 21.661 33.8756C21.3675 33.0747 21.0075 32.2881 20.5366 31.6769C20.0744 31.0772 19.3051 30.4003 18.1799 30.4003C17.0618 30.4003 16.289 31.0698 15.8201 31.6629C15.3401 32.2701 14.9659 33.0534 14.6576 33.8547C14.0367 35.4682 13.5291 37.5789 13.0567 39.5666L13.008 39.7719C12.5402 41.7409 12.1029 43.5818 11.6065 44.9523C11.4171 45.4757 11.2383 45.8739 11.0764 46.1583C10.9182 45.8752 10.7439 45.4797 10.5595 44.9607C10.0834 43.6194 9.66619 41.8301 9.21816 39.9083L9.13972 39.5719C8.67552 37.583 8.17189 35.4685 7.5422 33.85C7.22935 33.0457 6.84668 32.2584 6.3515 31.6484C6.23936 31.5103 6.11194 31.3701 5.96872 31.2361ZM4.3102 33.9253C4.44071 34.1701 4.57879 34.4736 4.72154 34.8406C5.26659 36.2416 5.72833 38.1533 6.20382 40.1905L6.29638 40.5875C6.72929 42.4464 7.17964 44.38 7.7101 45.8739C7.99223 46.6684 8.33296 47.4466 8.77112 48.0514C9.1855 48.6235 9.9289 49.3623 11.072 49.3623C12.2118 49.3623 12.9569 48.627 13.3741 48.0576C13.8161 47.4542 14.1623 46.6769 14.4502 45.8818C15.0019 44.3584 15.4717 42.3794 15.9214 40.4855V40.4854L15.9901 40.1959C16.4746 38.1574 16.9409 36.2419 17.482 34.8358C17.7326 34.1843 17.9673 33.7305 18.1716 33.449C18.3652 33.7281 18.5864 34.1747 18.821 34.815C19.3365 36.2222 19.7697 38.1361 20.2293 40.1798L20.2444 40.2467C20.6859 42.2098 21.1543 44.2926 21.7384 45.8867C22.0319 46.6879 22.3919 47.4745 22.8629 48.0855C23.3251 48.6854 24.0943 49.3623 25.2193 49.3623C26.3503 49.3623 27.1168 48.6792 27.5735 48.074C28.0373 47.4599 28.3861 46.6707 28.6678 45.8708C29.2093 44.3344 29.6398 42.3408 30.0503 40.4444V40.4443L30.1091 40.169C30.5512 38.1278 30.9754 36.2214 31.4993 34.8246C31.6127 34.5208 31.7245 34.2617 31.8311 34.0441C32.6338 35.7921 33.079 37.7223 33.079 39.7513C33.079 47.6413 26.3475 54.0377 18.0432 54.0377C9.73906 54.0377 3.0072 47.6413 3.0072 39.7513C3.0072 37.6762 3.47282 35.7044 4.3102 33.9253ZM18.0432 22.6077C8.07823 22.6077 0 30.2831 0 39.7513C0 49.2194 8.07823 56.8948 18.0432 56.8948C28.0084 56.8948 36.0862 49.2194 36.0862 39.7513C36.0862 30.2831 28.0084 22.6077 18.0432 22.6077ZM18.387 33.2098C18.387 33.2101 18.3835 33.2128 18.3764 33.2167C18.3834 33.2114 18.387 33.2095 18.387 33.2098ZM17.9713 33.2117C17.9643 33.2077 17.9609 33.2049 17.9609 33.2045C17.9609 33.2042 17.9644 33.2062 17.9713 33.2117ZM24.9907 46.5623C24.9907 46.5623 24.9939 46.5592 25.0004 46.5552C24.9939 46.5605 24.9907 46.5627 24.9907 46.5623ZM25.4279 46.5508C25.4349 46.5548 25.4386 46.5574 25.4386 46.5579C25.4386 46.5583 25.4349 46.5561 25.4279 46.5508ZM10.7638 46.5879C10.7638 46.5875 10.7681 46.5835 10.7768 46.5778C10.7682 46.5853 10.7638 46.5884 10.7638 46.5879ZM11.3728 46.5804C11.3814 46.5862 11.3857 46.5901 11.3857 46.5906C11.3857 46.591 11.3813 46.5884 11.3728 46.5804Z" fill="#81818B"/>
<path d="M46.0492 49.9007L41.6738 35.6801H45.5063L48.1014 45.9154L51.1186 35.6801H55.4036L58.4213 45.9154L61.0463 35.6801H64.8788L60.473 49.9007H56.4599L53.2611 39.2639L50.0628 49.9007H46.0492Z" fill="#81818B"/>
<path d="M70.5021 50.2449C69.2148 50.2449 68.1585 50.0533 67.3338 49.6711C66.5095 49.2698 65.8958 48.7442 65.4931 48.0943C65.091 47.4444 64.8899 46.7277 64.8899 45.9442C64.8899 44.6254 65.4327 43.5549 66.519 42.733C67.6052 41.9112 69.2353 41.5002 71.4078 41.5002H75.2098V41.1562C75.2098 40.1813 74.9179 39.4646 74.3346 39.0059C73.7514 38.5471 73.0269 38.3178 72.1622 38.3178C71.3773 38.3178 70.6932 38.4993 70.11 38.8625C69.5267 39.2066 69.1644 39.7226 69.0237 40.4107H65.2516C65.3524 39.3786 65.7147 38.4802 66.3378 37.7157C66.982 36.9512 67.8068 36.3682 68.8122 35.9668C69.8186 35.5463 70.9447 35.3361 72.1921 35.3361C74.3247 35.3361 76.0041 35.8425 77.2316 36.8556C78.4585 37.8686 79.0722 39.3022 79.0722 41.1562V49.9007H75.7826L75.4209 47.6072C74.9783 48.3717 74.3546 49.0022 73.5503 49.4995C72.7654 49.9963 71.7495 50.2449 70.5021 50.2449ZM71.3773 47.3776C72.484 47.3776 73.3387 47.0334 73.9419 46.3455C74.5656 45.6575 74.9583 44.8067 75.1195 43.7938H71.8299C70.804 43.7938 70.0701 43.9754 69.627 44.3386C69.1849 44.6824 68.9634 45.1129 68.9634 45.6287C68.9634 46.1831 69.1849 46.6131 69.627 46.9188C70.0701 47.2245 70.6528 47.3776 71.3773 47.3776Z" fill="#81818B"/>
<path d="M85.1523 49.9007L79.6608 35.6801H83.7038L87.5058 46.4317L91.3079 35.6801H95.3514L89.8295 49.9007H85.1523Z" fill="#81818B"/>
<path d="M103.116 50.2449C101.607 50.2449 100.27 49.9388 99.1025 49.3273C97.9359 48.7155 97.0209 47.8554 96.3567 46.7467C95.6926 45.6385 95.3613 44.3577 95.3613 42.905C95.3613 41.4333 95.6832 40.124 96.3263 38.9772C96.9904 37.8304 97.8955 36.9416 99.0426 36.3108C100.209 35.661 101.577 35.3361 103.146 35.3361C104.614 35.3361 105.912 35.6419 107.039 36.2535C108.165 36.8651 109.041 37.7061 109.664 38.7765C110.308 39.8277 110.63 41.0032 110.63 42.303C110.63 42.5132 110.619 42.733 110.599 42.9624C110.599 43.1918 110.589 43.4307 110.569 43.6792H99.1933C99.2736 44.7877 99.6763 45.6575 100.4 46.2884C101.144 46.9188 102.04 47.2343 103.086 47.2343C103.87 47.2343 104.524 47.0719 105.047 46.7467C105.59 46.403 105.993 45.9632 106.254 45.4279H110.177C109.895 46.3264 109.422 47.1485 108.759 47.8939C108.115 48.6199 107.31 49.1933 106.344 49.614C105.399 50.0343 104.323 50.2449 103.116 50.2449ZM103.146 38.3178C102.201 38.3178 101.366 38.5758 100.641 39.0919C99.9173 39.5888 99.4548 40.3534 99.2532 41.3855H106.707C106.646 40.4489 106.284 39.7035 105.62 39.1492C104.956 38.5949 104.132 38.3178 103.146 38.3178Z" fill="#81818B"/>
<path d="M112.671 49.9007V29.2578H116.534V49.9007H112.671Z" fill="#81818B"/>
<path d="M126.545 50.2449C125.036 50.2449 123.699 49.9388 122.532 49.3273C121.365 48.7155 120.45 47.8554 119.786 46.7467C119.122 45.6385 118.791 44.3577 118.791 42.905C118.791 41.4333 119.112 40.124 119.755 38.9772C120.42 37.8304 121.325 36.9416 122.472 36.3108C123.638 35.661 125.006 35.3361 126.575 35.3361C128.044 35.3361 129.341 35.6419 130.468 36.2535C131.594 36.8651 132.47 37.7061 133.093 38.7765C133.737 39.8277 134.059 41.0032 134.059 42.303C134.059 42.5132 134.049 42.733 134.029 42.9624C134.029 43.1918 134.018 43.4307 133.998 43.6792H122.622C122.703 44.7877 123.105 45.6575 123.829 46.2884C124.573 46.9188 125.469 47.2343 126.515 47.2343C127.299 47.2343 127.953 47.0719 128.476 46.7467C129.02 46.403 129.422 45.9632 129.683 45.4279H133.607C133.325 46.3264 132.852 47.1485 132.188 47.8939C131.544 48.6199 130.74 49.1933 129.774 49.614C128.829 50.0343 127.752 50.2449 126.545 50.2449ZM126.575 38.3178C125.63 38.3178 124.795 38.5758 124.07 39.0919C123.346 39.5888 122.884 40.3534 122.682 41.3855H130.136C130.075 40.4489 129.714 39.7035 129.05 39.1492C128.385 38.5949 127.561 38.3178 126.575 38.3178Z" fill="#81818B"/>
<path d="M142.286 50.2449C140.959 50.2449 139.792 50.044 138.786 49.6428C137.78 49.222 136.975 48.6487 136.372 47.9222C135.769 47.1962 135.406 46.3552 135.286 45.3996H139.178C139.299 45.9535 139.621 46.4317 140.144 46.833C140.687 47.2152 141.381 47.4064 142.226 47.4064C143.071 47.4064 143.684 47.244 144.066 46.9188C144.469 46.5941 144.67 46.2212 144.67 45.8008C144.67 45.189 144.389 44.778 143.825 44.5678C143.262 44.3386 142.477 44.1188 141.471 43.9085C140.828 43.7747 140.174 43.6123 139.51 43.4211C138.846 43.23 138.233 42.991 137.67 42.7044C137.126 42.3985 136.684 42.0163 136.341 41.5575C136 41.0797 135.829 40.4967 135.829 39.8086C135.829 38.5471 136.352 37.4864 137.398 36.6262C138.464 35.7661 139.952 35.3361 141.864 35.3361C143.634 35.3361 145.042 35.7279 146.088 36.5115C147.154 37.2952 147.788 38.3751 147.989 39.7513H144.338C144.117 38.7001 143.282 38.1744 141.834 38.1744C141.109 38.1744 140.546 38.3082 140.144 38.5758C139.762 38.8434 139.571 39.1779 139.571 39.5793C139.571 39.9998 139.862 40.3343 140.446 40.5828C141.029 40.8312 141.803 41.0606 142.769 41.2709C143.815 41.5002 144.77 41.7582 145.635 42.0449C146.521 42.3125 147.225 42.7235 147.748 43.2778C148.271 43.8129 148.532 44.5869 148.532 45.6C148.553 46.4795 148.311 47.2723 147.808 47.9797C147.305 48.6867 146.581 49.2411 145.635 49.6428C144.69 50.044 143.574 50.2449 142.286 50.2449Z" fill="#81818B"/>
<path d="M156.933 50.2449C155.605 50.2449 154.438 50.044 153.433 49.6428C152.427 49.222 151.622 48.6487 151.019 47.9222C150.415 47.1962 150.053 46.3552 149.932 45.3996H153.825C153.946 45.9535 154.267 46.4317 154.79 46.833C155.334 47.2152 156.027 47.4064 156.872 47.4064C157.717 47.4064 158.331 47.244 158.713 46.9188C159.115 46.5941 159.317 46.2212 159.317 45.8008C159.317 45.189 159.035 44.778 158.472 44.5678C157.909 44.3386 157.124 44.1188 156.118 43.9085C155.474 43.7747 154.821 43.6123 154.157 43.4211C153.493 43.23 152.879 42.991 152.316 42.7044C151.773 42.3985 151.33 42.0163 150.988 41.5575C150.646 41.0797 150.475 40.4967 150.475 39.8086C150.475 38.5471 150.999 37.4864 152.045 36.6262C153.111 35.7661 154.599 35.3361 156.51 35.3361C158.281 35.3361 159.689 35.7279 160.735 36.5115C161.801 37.2952 162.434 38.3751 162.636 39.7513H158.985C158.764 38.7001 157.929 38.1744 156.48 38.1744C155.756 38.1744 155.192 38.3082 154.79 38.5758C154.408 38.8434 154.217 39.1779 154.217 39.5793C154.217 39.9998 154.508 40.3343 155.092 40.5828C155.675 40.8312 156.45 41.0606 157.415 41.2709C158.462 41.5002 159.417 41.7582 160.282 42.0449C161.167 42.3125 161.872 42.7235 162.394 43.2778C162.917 43.8129 163.179 44.5869 163.179 45.6C163.199 46.4795 162.958 47.2723 162.455 47.9797C161.952 48.6867 161.228 49.2411 160.282 49.6428C159.337 50.044 158.22 50.2449 156.933 50.2449Z" fill="#81818B"/>
</svg>
